# xmcd CD database file
#
# Track frame offsets:
#	150
#	19057
#	34467
#	52267
#	71447
#	91570
#	113825
#	134347
#	151902
#	164357
#	186905
#	199412
#	214657
#	237812
#
# Disc length: 3422 seconds
#
# Revision: 0
# Processed by: cddbd v1.4PL0 Copyright (c) Steve Scherf et al.
# Submitted via: CDex 1.40Release
#
DISCID=c20d5c0e
DTITLE=Cast Iron Filter - This Ugly Town
DYEAR=2001
DGENRE=Country
TTITLE0=Brand New Pants
TTITLE1=Running Free
TTITLE2=Ugly Town
TTITLE3=Americana Motel
TTITLE4=Temptress of Washington
TTITLE5=SOKY Fair
TTITLE6=Jackson
TTITLE7=You Ain't Right
TTITLE8=When You Don't Come Around
TTITLE9=Ain't So Great
TTITLE10=Unleaded
TTITLE11=Sheila and Jake
TTITLE12=Wreckless
TTITLE13=Follow You Down
EXTD=YEAR: 2001 ID3G: 2
EXTT0=
EXTT1=
EXTT2=
EXTT3=
EXTT4=
EXTT5=
EXTT6=
EXTT7=
EXTT8=
EXTT9=
EXTT10=
EXTT11=
EXTT12=
EXTT13=
PLAYORDER=
